<?xml version="1.0" standalone="no"?>
<!DOCTYPE svg PUBLIC "-//W3C//DTD SVG 20010904//EN"
 "http://www.w3.org/TR/2001/REC-SVG-20010904/DTD/svg10.dtd">
<svg version="1.0" xmlns="http://www.w3.org/2000/svg"
 width="512.000000pt" height="512.000000pt" viewBox="0 0 512.000000 512.000000"
 preserveAspectRatio="xMidYMid meet">
<metadata>
Created by potrace 1.14, written by Peter Selinger 2001-2017
</metadata>
<g transform="translate(0.000000,512.000000) scale(0.100000,-0.100000)"
fill="#000000" stroke="none">
<path d="M0 4544 c0 -457 3 -574 13 -568 9 6 9 4 0 -7 -7 -7 -12 -22 -12 -34
1 -17 2 -18 6 -2 3 11 10 16 19 13 8 -3 21 -9 29 -12 10 -4 15 0 15 14 0 14 6
20 19 19 11 0 17 -5 15 -9 -3 -5 -10 -6 -15 -3 -5 4 -9 2 -9 -3 0 -5 9 -12 20
-15 11 -3 18 0 17 6 -1 6 9 12 23 12 29 1 52 13 46 24 -3 4 -1 13 4 20 6 10 9
8 15 -8 7 -22 35 -29 35 -8 0 7 7 4 15 -7 15 -19 15 -19 15 2 0 12 4 22 10 22
5 0 7 -8 3 -17 -5 -15 -3 -14 10 2 8 11 13 23 11 26 -2 4 3 10 12 13 10 4 13
2 8 -6 -5 -8 0 -9 17 -5 13 4 30 7 37 7 6 0 12 8 12 18 0 14 2 15 10 2 7 -11
10 -11 10 -2 0 7 5 10 10 7 6 -4 8 -10 5 -15 -3 -4 2 -11 11 -14 12 -4 15 -2
10 9 -3 8 -1 15 4 15 6 0 10 -6 10 -12 0 -10 3 -9 9 1 11 18 23 -2 15 -26 -6
-17 -6 -17 8 1 8 10 20 16 26 12 7 -4 12 -1 12 6 1 9 5 7 14 -4 17 -23 30 -23
22 -1 -4 10 -4 14 0 10 4 -4 13 -2 21 4 10 9 13 8 13 -5 0 -11 5 -15 12 -10
11 6 11 4 1 -7 -7 -7 -13 -20 -13 -29 0 -9 3 -11 8 -5 11 16 44 18 53 3 7 -10
9 -9 9 3 0 9 7 22 15 29 12 10 15 10 15 -3 0 -9 5 -19 12 -23 7 -4 8 -3 4 4
-4 7 -2 12 3 12 6 0 11 -8 11 -17 1 -17 1 -17 11 0 6 9 14 15 20 12 5 -4 9 -1
9 4 0 6 -7 11 -15 11 -8 0 -15 4 -15 10 0 6 9 6 24 0 15 -5 27 -5 35 3 8 8 11
8 11 -1 0 -7 -4 -12 -10 -12 -16 0 -33 -41 -21 -51 6 -5 9 -6 6 -3 -2 4 0 15
6 26 8 15 14 17 24 8 11 -9 12 -7 8 12 -4 23 -4 23 12 3 9 -11 21 -19 26 -18
5 2 9 -3 9 -10 1 -6 8 2 16 18 8 17 12 22 9 13 -5 -19 19 -25 30 -8 12 19 33
10 40 -17 7 -26 8 -26 15 -8 4 11 5 27 3 35 -4 12 -3 12 5 1 7 -10 14 -11 33
-1 23 11 23 10 5 -4 -11 -9 -16 -16 -11 -16 5 0 0 -6 -11 -14 -18 -14 -18 -15
6 -12 14 2 36 8 49 15 l23 13 -21 19 c-25 24 -26 26 -6 26 8 0 15 -6 15 -12 0
-7 7 -19 16 -26 15 -12 16 -11 10 9 -6 17 -4 21 8 16 12 -5 13 -11 6 -24 -7
-13 -7 -21 0 -25 5 -3 10 -2 10 4 0 5 9 13 21 16 15 5 19 13 15 28 -5 19 -4
19 12 2 13 -13 14 -19 4 -22 -20 -8 -14 -22 8 -16 11 3 20 0 20 -6 0 -15 13
-14 36 5 18 14 18 15 -6 4 -24 -10 -24 -10 -6 4 14 12 23 13 33 5 10 -9 13 -6
13 16 0 25 2 26 17 14 11 -9 14 -10 9 -2 -4 7 -2 21 4 30 11 17 11 17 6 0 -8
-23 23 -89 36 -81 6 4 4 10 -6 16 -9 5 -16 14 -16 19 0 6 5 7 10 4 10 -6 14 6
11 35 -1 10 5 8 18 -7 17 -20 20 -21 25 -6 4 9 1 20 -6 25 -8 5 -9 8 -2 8 16
0 35 -25 26 -35 -4 -5 -2 -5 5 -1 7 4 30 -2 52 -14 22 -11 51 -20 63 -21 l23
0 -22 -9 c-13 -5 -23 -15 -23 -22 0 -10 3 -9 9 1 7 12 13 12 24 3 7 -7 17 -9
20 -5 4 3 7 4 7 1 0 -12 -156 -136 -197 -157 -24 -12 -43 -23 -43 -26 0 -6 62
6 83 17 23 12 22 9 -19 -58 -19 -33 -53 -95 -75 -139 -34 -70 -41 -94 -49
-185 -6 -58 -19 -136 -30 -175 -11 -38 -20 -81 -20 -95 0 -21 4 -18 23 19 l22
44 3 -34 c7 -88 25 -182 54 -274 17 -55 43 -156 59 -225 15 -69 35 -146 43
-172 19 -60 6 -69 -40 -29 -37 33 -62 38 -85 19 -8 -7 -12 -12 -10 -11 2 1 29
-15 60 -37 31 -22 62 -40 69 -40 24 0 40 -47 44 -127 4 -68 2 -81 -9 -72 -7 6
-13 16 -13 21 0 10 -14 30 -95 131 -52 66 -71 87 -77 87 -2 0 -10 -47 -17
-105 -17 -134 -11 -214 24 -290 15 -33 33 -89 41 -124 16 -75 47 -126 87 -142
19 -8 30 -22 34 -40 4 -23 12 -30 39 -35 41 -8 48 -17 34 -44 -7 -14 -8 -26 0
-39 7 -13 7 -22 0 -26 -5 -3 -10 -11 -10 -17 0 -15 51 0 76 23 21 19 21 19 32
-19 7 -22 12 -51 12 -65 0 -14 5 -29 10 -32 14 -9 13 -52 -2 -61 -7 -5 -4 -10
11 -16 13 -5 21 -15 20 -25 -2 -10 2 -28 9 -40 10 -18 9 -24 -5 -32 -17 -10
-17 -10 -1 -11 24 0 35 -27 34 -84 l-1 -49 -84 -49 c-170 -97 -257 -185 -342
-343 -24 -43 -82 -131 -130 -196 -106 -142 -112 -154 -106 -194 5 -31 3 -33
-66 -70 -40 -21 -79 -44 -87 -50 -8 -7 -130 -72 -270 -144 l-255 -131 942 0
c815 1 942 3 947 15 3 8 0 14 -5 12 -16 -3 -22 63 -6 67 97 26 94 26 164 -20
75 -49 110 -59 180 -50 26 3 56 6 66 6 12 1 17 6 13 15 -2 7 -2 15 2 17 9 4
62 75 62 82 0 3 -7 6 -15 6 -12 0 -13 5 -4 26 12 33 7 39 -20 24 -18 -9 -25
-6 -51 22 -35 38 -36 41 -12 69 25 31 320 291 380 336 28 22 68 55 89 74 21
19 46 39 55 45 9 5 38 36 65 69 26 33 58 70 70 83 13 12 23 28 23 36 0 7 7 19
15 26 9 7 32 46 51 86 20 40 44 80 55 90 18 17 19 16 19 -27 0 -77 -38 -271
-69 -359 -44 -119 -58 -152 -117 -262 -29 -54 -50 -98 -47 -98 3 0 -2 -12 -12
-26 -11 -17 -12 -24 -4 -18 16 10 -43 -67 -66 -86 -17 -14 -21 -35 -5 -25 5 3
10 4 10 1 0 -2 -28 -25 -61 -50 -34 -26 -91 -78 -126 -116 l-65 -70 1029 1
c969 0 1026 1 993 17 -395 189 -718 357 -755 392 -13 12 -31 23 -41 24 -10 2
-21 14 -25 27 -3 13 -38 72 -77 129 -39 58 -98 156 -131 217 -60 113 -113 191
-168 249 -33 36 -135 104 -185 124 -18 7 -34 15 -36 16 -2 1 4 16 12 32 12 23
13 32 3 36 -12 5 12 31 37 39 7 3 7 9 -3 20 -11 13 -11 20 -1 32 6 8 8 20 4
27 -6 10 -3 9 9 -1 19 -15 20 -13 17 46 -1 37 1 42 15 36 14 -5 16 -3 7 13 -7
13 -5 39 6 85 l15 67 61 -3 c34 -2 49 -1 34 1 -35 7 -59 57 -51 107 4 28 10
37 25 37 16 0 19 5 13 29 -8 39 9 70 47 83 29 10 30 12 13 24 -11 9 -16 21
-12 35 l6 21 -23 -21 c-12 -11 -26 -21 -30 -21 -9 0 4 183 15 194 6 6 9 6 9
-1 0 -6 7 -19 16 -27 14 -14 18 -13 40 13 32 38 32 74 -1 89 -31 14 -31 35 -4
87 30 57 59 86 80 80 13 -4 23 6 39 40 12 25 20 48 18 51 -10 9 -60 -40 -105
-104 -68 -97 -88 -121 -78 -97 4 11 8 55 10 97 2 84 7 95 69 140 43 31 41 36
-4 13 -30 -15 -30 -15 -30 12 0 32 23 137 87 398 59 242 65 354 28 546 -4 21
-3 21 23 -4 42 -41 49 -32 10 11 -25 28 -40 58 -52 108 -34 132 -59 199 -97
255 -21 31 -35 59 -32 63 4 3 0 6 -8 6 -22 1 -70 77 -66 105 3 28 16 45 18 24
1 -8 1 -17 0 -21 0 -5 4 -8 10 -8 6 0 8 9 4 20 -4 11 -2 20 4 20 6 0 11 -5 11
-12 0 -8 6 -6 17 5 16 15 15 18 -3 39 -11 13 -12 18 -3 10 9 -6 20 -8 24 -4 5
4 5 2 1 -5 -3 -6 -2 -14 4 -18 5 -3 10 -13 10 -21 0 -8 -4 -13 -9 -10 -5 4 -8
-2 -7 -11 2 -10 7 -17 12 -16 5 1 16 -4 24 -10 10 -8 9 -5 -2 8 -11 14 -14 25
-8 35 5 8 6 18 3 24 -4 5 -1 6 8 0 18 -11 60 -13 80 -3 23 12 52 -12 43 -35
-5 -14 -9 -15 -16 -4 -6 9 -7 5 -3 -11 5 -15 3 -21 -3 -17 -6 3 -13 3 -16 -2
-2 -4 10 -8 27 -7 32 0 49 16 26 24 -7 2 -9 -1 -4 -9 5 -8 4 -11 -3 -7 -7 5
-7 16 1 38 11 29 12 30 15 8 5 -30 39 -60 60 -52 10 4 12 8 4 11 -16 5 -15 23
1 19 20 -4 26 -31 8 -39 -11 -5 -9 -7 9 -7 42 1 62 -7 76 -26 8 -10 14 -14 14
-8 0 7 -5 15 -10 18 -6 4 -8 11 -4 16 3 5 13 1 22 -9 9 -10 14 -13 10 -7 -4 6
-3 17 2 25 6 8 10 10 10 4 0 -17 28 -25 36 -12 4 7 3 8 -4 4 -7 -4 -12 -1 -12
7 0 22 -30 29 -54 14 -16 -11 -24 -11 -32 -3 -20 22 -23 45 -6 57 9 8 13 9 9
4 -5 -6 6 -14 25 -21 25 -8 40 -8 65 3 30 12 32 12 26 -4 -6 -16 -4 -16 15 1
12 10 19 23 16 27 -3 5 1 6 9 3 9 -3 12 -14 9 -30 -3 -20 -1 -23 13 -18 12 5
13 9 5 14 -17 10 2 20 33 18 14 -1 23 -6 20 -11 -3 -5 9 -6 27 -3 32 5 54 16
31 16 -7 0 -9 5 -5 12 5 7 11 5 21 -7 7 -11 13 -14 13 -8 0 6 11 14 25 17 15
4 23 11 19 17 -4 8 -9 7 -15 -2 -5 -8 -9 -9 -9 -4 0 6 9 18 20 28 19 16 20 16
20 -11 0 -20 3 -23 9 -13 5 8 7 21 4 29 -5 12 -3 12 16 0 18 -11 23 -11 31 2
9 13 10 13 11 0 1 -8 1 -18 1 -22 -1 -3 5 -9 13 -12 9 -3 12 0 9 8 -3 7 2 19
11 26 13 11 18 11 28 0 10 -10 9 -11 -2 -5 -10 5 -12 4 -7 -4 4 -6 12 -9 17
-5 5 3 7 9 4 14 -3 5 -1 11 5 15 5 3 10 -1 10 -9 0 -9 4 -16 10 -16 5 0 7 -8
4 -17 -5 -15 -4 -15 4 -3 6 8 8 18 6 22 -8 12 11 9 24 -4 9 -9 12 -8 12 6 0 9
5 14 10 11 6 -4 8 -10 5 -15 -3 -5 -1 -11 4 -14 5 -4 8 5 7 18 -3 28 20 29 39
2 12 -15 13 -15 19 0 4 9 4 19 1 22 -3 3 -5 -1 -5 -8 0 -7 -2 -11 -5 -8 -8 7
5 38 16 38 5 0 9 -10 9 -22 0 -19 2 -20 10 -8 5 8 10 10 10 4 0 -7 7 -15 16
-18 11 -4 15 -2 11 8 -4 10 0 14 14 11 11 -2 17 0 14 5 -7 11 5 40 15 40 5 0
7 -15 6 -32 -2 -18 -1 -25 1 -15 4 14 7 16 19 6 8 -6 14 -8 14 -3 0 5 5 2 10
-6 8 -13 10 -12 10 3 0 9 5 17 10 17 6 0 10 -4 10 -9 0 -6 10 -8 21 -6 28 6
31 9 23 29 -8 21 -25 10 -18 -12 5 -13 4 -14 -4 -4 -5 8 -12 13 -16 13 -18 -3
-19 1 -3 10 9 5 17 15 17 20 0 6 -5 7 -12 3 -7 -4 -8 -3 -4 5 6 8 12 9 20 2 7
-6 16 -9 19 -6 4 3 5 2 2 -2 -3 -3 1 -13 9 -22 8 -9 15 -20 15 -26 0 -5 4 -10
11 -11 6 -2 6 0 1 2 -15 8 10 43 25 37 6 -2 15 0 19 6 11 19 35 12 47 -14 6
-13 15 -22 19 -19 5 3 9 230 9 505 l0 499 -2560 0 -2560 0 0 -576z m4890 -409
c0 -5 -5 -3 -10 5 -5 8 -10 20 -10 25 0 6 5 3 10 -5 5 -8 10 -19 10 -25z m108
4 c-3 -8 -7 -3 -11 10 -4 17 -3 21 5 13 5 -5 8 -16 6 -23z m-3322 -21 c-10 -5
-23 -5 -33 1 -15 8 -11 10 15 9 26 -1 30 -3 18 -10z m2849 -17 c-6 -5 -25 10
-25 20 0 5 6 4 14 -3 8 -7 12 -15 11 -17z m-240 9 c3 -6 -1 -7 -9 -4 -18 7
-21 14 -7 14 6 0 13 -4 16 -10z m112 -12 c-3 -8 -6 -5 -6 6 -1 11 2 17 5 13 3
-3 4 -12 1 -19z m-243 -23 c3 -8 1 -15 -4 -15 -6 0 -10 7 -10 15 0 8 2 15 4
15 2 0 6 -7 10 -15z m204 -10 c-3 -3 -9 2 -12 12 -6 14 -5 15 5 6 7 -7 10 -15
7 -18z m-318 5 c0 -5 -5 -10 -11 -10 -5 0 -7 5 -4 10 3 6 8 10 11 10 2 0 4 -4
4 -10z m180 4 c0 -8 -19 -13 -24 -6 -3 5 1 9 9 9 8 0 15 -2 15 -3z m105 -4 c3
-6 -4 -10 -17 -10 -18 0 -20 2 -8 10 19 12 18 12 25 0z m-2880 -10 c-12 -5
-14 -9 -6 -9 8 -1 12 -3 9 -6 -7 -7 -38 5 -38 14 0 4 12 7 28 8 23 1 24 1 7
-7z m181 -5 c-11 -8 -25 -15 -30 -15 -6 1 0 7 14 15 32 19 40 18 16 0z m2654
-1 c0 -8 -5 -12 -10 -9 -6 4 -8 11 -5 16 9 14 15 11 15 -7z m-4008 -26 c-6 -6
-12 -6 -17 3 -5 8 -4 10 3 5 7 -4 12 0 13 11 0 12 2 13 6 5 3 -8 1 -18 -5 -24z
m103 12 c3 -5 -1 -10 -10 -10 -9 0 -13 5 -10 10 3 6 8 10 10 10 2 0 7 -4 10
-10z m320 -8 c-3 -3 -11 0 -18 7 -9 10 -8 11 6 5 10 -3 15 -9 12 -12z m640 8
c3 -5 1 -10 -4 -10 -6 0 -11 5 -11 10 0 6 2 10 4 10 3 0 8 -4 11 -10z m240 0
c3 -5 -1 -10 -9 -10 -9 0 -16 5 -16 10 0 6 4 10 9 10 6 0 13 -4 16 -10z m2052
-31 c-2 -24 -20 -7 -22 21 -1 15 1 17 11 9 7 -6 12 -19 11 -30z m693 37 c0 -3
-4 -8 -10 -11 -5 -3 -10 -1 -10 4 0 6 5 11 10 11 6 0 10 -2 10 -4z m-3110 -10
c0 -3 -4 -8 -10 -11 -5 -3 -10 -1 -10 4 0 6 5 11 10 11 6 0 10 -2 10 -4z
m2796 -3 c-8 -8 -57 -12 -52 -5 2 4 16 8 31 8 14 1 24 0 21 -3z m94 -3 c0 -5
-5 -10 -11 -10 -5 0 -7 5 -4 10 3 6 8 10 11 10 2 0 4 -4 4 -10z m-3845 -20 c3
-5 1 -10 -4 -10 -6 0 -11 5 -11 10 0 6 2 10 4 10 3 0 8 -4 11 -10z m425 6 c0
-3 -4 -8 -10 -11 -5 -3 -10 -1 -10 4 0 6 5 11 10 11 6 0 10 -2 10 -4z m190 -5
c0 -6 -4 -13 -10 -16 -5 -3 -10 1 -10 9 0 9 5 16 10 16 6 0 10 -4 10 -9z
m3165 -43 c6 -5 3 -8 -7 -8 -10 0 -18 6 -18 14 0 8 -2 23 -5 33 -3 10 0 7 7
-7 7 -14 17 -28 23 -32z m-3385 38 c0 -2 -7 -7 -16 -10 -8 -3 -12 -2 -9 4 6
10 25 14 25 6z m-500 -30 c0 -3 -4 -8 -10 -11 -5 -3 -10 -1 -10 4 0 6 5 11 10
11 6 0 10 -2 10 -4z m2870 -451 l-23 -24 36 10 c19 5 48 8 63 7 16 -2 62 1
103 6 56 6 75 5 81 -4 5 -8 27 -13 57 -11 l50 1 40 -62 c53 -83 87 -208 96
-348 4 -65 10 -85 47 -150 24 -41 50 -88 59 -105 13 -25 17 -83 23 -350 3
-176 4 -349 1 -385 -15 -180 -136 -550 -215 -658 -23 -31 -43 -51 -46 -44 -6
20 -22 14 -34 -13 -10 -21 -13 -23 -23 -9 -20 28 -37 -30 -30 -101 5 -47 3
-70 -11 -102 -13 -31 -22 -39 -30 -32 -9 7 -14 2 -19 -21 -9 -43 -32 -37 -46
13 -6 23 -18 59 -25 81 -17 46 -11 139 13 208 13 38 14 54 6 83 -6 19 -7 35
-2 35 17 0 9 15 -35 66 -40 46 -131 107 -242 162 -40 20 -75 52 -58 52 5 0 1
7 -9 15 -18 13 -18 14 5 25 33 17 68 51 68 66 0 16 -59 43 -114 50 -34 5 -52
2 -72 -10 -14 -10 -50 -20 -79 -23 -48 -5 -58 -2 -114 32 -34 21 -73 49 -88
62 -26 25 -27 25 -51 -14 -9 -16 -78 -44 -86 -36 -9 10 -7 57 5 91 9 26 20 34
67 49 54 17 59 22 96 86 l39 67 4 133 c2 72 6 137 8 144 2 6 -1 14 -8 16 -8 2
-12 26 -11 65 1 49 -2 63 -16 67 -9 3 -23 21 -30 40 -9 23 -19 34 -28 30 -8
-3 -23 5 -34 17 -14 17 -21 19 -25 10 -4 -10 -11 -8 -29 9 -30 28 -54 32 -199
30 -91 0 -132 4 -170 17 -50 17 -50 17 -90 -7 -109 -67 -190 -184 -142 -205 6
-3 3 -4 -7 -3 -23 3 -33 -21 -12 -29 12 -4 13 -10 4 -29 -6 -14 -16 -21 -24
-18 -8 3 -14 0 -14 -7 0 -6 5 -8 10 -5 6 3 10 1 10 -4 0 -6 5 -11 12 -11 6 0
8 3 5 6 -13 13 14 45 33 39 13 -4 22 1 30 15 6 11 16 20 23 20 7 0 18 9 25 20
7 12 23 20 41 20 27 0 57 21 46 32 -9 9 109 18 149 11 20 -3 41 -14 46 -23 10
-19 -6 -22 -198 -46 -41 -5 -62 -15 -94 -43 -22 -20 -49 -37 -60 -37 -10 -1
-27 -9 -38 -19 -12 -10 -20 -13 -20 -7 0 18 -17 14 -25 -5 -11 -28 -16 -155
-5 -148 5 3 11 -3 15 -14 4 -13 13 -18 25 -16 10 2 38 -6 62 -17 52 -25 128
-31 228 -17 122 17 247 62 219 79 -8 5 -19 4 -26 -2 -7 -6 -13 -7 -13 -2 0 5
-22 8 -50 8 -27 -1 -47 2 -44 7 3 5 14 9 25 9 10 0 19 5 19 10 0 6 -7 10 -15
10 -25 0 -17 26 20 63 22 22 35 45 35 61 0 26 1 26 28 11 46 -25 91 -69 65
-63 -14 3 -83 -14 -83 -21 0 -3 27 -7 61 -7 69 -2 78 -7 55 -29 -20 -21 -21
-35 -1 -35 21 0 7 -28 -48 -95 l-41 -50 66 63 c37 34 70 62 75 62 4 -1 -15
-22 -43 -48 -51 -47 -89 -92 -68 -79 7 4 15 0 18 -9 3 -8 2 -13 -3 -10 -5 3
-15 -2 -22 -12 -12 -15 -12 -16 2 -4 14 10 20 9 39 -6 21 -17 21 -18 5 -57
-10 -22 -24 -56 -32 -75 -19 -44 -73 -202 -73 -214 0 -6 9 0 21 13 12 12 22
21 24 19 2 -2 4 -25 6 -53 3 -64 5 -66 34 -55 16 6 25 6 25 0 0 -6 -7 -10 -15
-10 -8 0 -15 -8 -15 -18 0 -20 -71 -62 -112 -66 -17 -2 -38 -16 -56 -37 -15
-19 -44 -52 -64 -73 -21 -21 -36 -44 -35 -50 1 -6 -3 -10 -9 -9 -6 1 -11 -3
-12 -10 -1 -7 -4 -24 -8 -40 -5 -22 -3 -26 9 -21 12 4 16 0 15 -18 -1 -12 -5
-28 -10 -34 -5 -7 -1 -21 10 -34 18 -22 18 -26 4 -62 -8 -21 -21 -38 -28 -38
-8 0 -11 -6 -7 -16 5 -14 3 -15 -15 -5 -15 8 -22 21 -22 41 0 34 -13 59 -53
102 -15 17 -30 42 -33 57 -3 14 -8 33 -11 41 -5 13 -6 13 -11 0 -3 -8 -12 -21
-21 -30 -13 -13 -14 -13 -8 3 7 18 -11 57 -26 57 -4 0 -6 -4 -3 -8 2 -4 1 -14
-4 -21 -5 -10 -10 -5 -15 17 -4 20 -11 29 -20 26 -24 -9 -104 184 -150 361 -5
17 -9 35 -11 40 -34 121 -47 304 -33 450 5 55 13 159 18 230 7 96 14 142 30
175 19 44 51 100 61 110 11 11 50 70 50 75 0 3 11 16 24 28 19 17 26 35 30 80
3 32 8 62 11 67 8 12 45 8 45 -6 0 -6 12 -17 28 -24 21 -10 23 -14 10 -17 -14
-4 -15 -9 -7 -29 7 -19 5 -31 -6 -47 -18 -26 -20 -57 -3 -57 6 0 -1 -13 -16
-29 l-28 -29 21 -14 c11 -7 21 -18 21 -25 0 -18 29 -16 36 2 4 8 10 15 16 15
5 0 6 -4 3 -10 -11 -17 4 -11 27 12 16 16 17 20 5 15 -18 -7 -21 1 -11 27 3 9
10 13 15 10 5 -3 6 1 3 9 -3 9 3 16 15 20 23 6 27 -3 9 -21 -9 -9 -8 -12 4
-12 17 0 19 34 4 59 -5 7 3 22 18 37 13 14 22 32 19 40 -3 9 1 14 12 14 10 0
13 5 9 12 -4 7 -3 8 4 4 7 -4 12 -14 12 -22 0 -8 -4 -12 -10 -9 -5 3 -10 1
-10 -4 0 -6 5 -11 11 -11 6 0 9 -9 6 -20 -3 -11 -1 -20 4 -20 9 0 13 15 10 33
-1 5 3 5 9 2 6 -4 9 -13 6 -21 -4 -11 -2 -11 13 -2 19 12 23 38 7 50 -5 3 -2
17 8 32 12 20 13 26 3 26 -19 0 -19 42 1 56 9 7 20 10 24 8 4 -3 5 2 2 10 -4
11 0 16 10 16 9 0 16 5 16 11 0 6 10 10 23 9 12 -1 24 -1 27 0 20 7 40 7 40
-1 0 -8 69 20 135 54 11 6 47 16 80 22 33 7 86 20 118 28 32 9 63 14 70 11 25
-9 333 106 382 143 39 29 44 29 15 -2z m-855 -875 c14 -6 2 -8 -40 -8 -48 0
-54 2 -30 8 40 10 46 10 70 0z m-175 -102 c0 -7 10 -22 22 -35 l21 -23 -30 0
c-17 0 -41 8 -53 18 l-23 19 22 22 c21 21 41 21 41 -1z m-611 -262 c34 -52 61
-97 61 -99 0 -3 -15 -10 -32 -17 -18 -6 -41 -17 -52 -25 -18 -13 -18 -15 4
-49 l22 -36 -24 0 c-25 0 -53 -43 -41 -64 4 -7 3 -8 -4 -1 -13 13 -2 98 26
194 25 86 23 121 -3 43 -10 -29 -24 -56 -32 -59 -8 -3 -12 -9 -9 -13 3 -5 2
-15 -1 -24 -9 -22 -26 -9 -19 14 3 11 1 28 -4 39 -8 14 -7 22 4 31 8 6 20 45
26 86 7 41 14 74 15 74 1 0 29 -42 63 -94z m481 64 c12 -8 11 -10 -7 -10 -13
0 -23 5 -23 10 0 13 11 13 30 0z m-356 -413 c5 -34 4 -36 -13 -28 -25 14 -47
52 -45 79 1 12 10 42 20 65 l19 41 7 -59 c4 -33 10 -77 12 -98z m-154 -23 c33
-49 33 -71 0 -38 -18 17 -45 84 -35 84 2 0 18 -21 35 -46z m1370 -38 c0 -2
-27 -22 -60 -45 -38 -27 -67 -40 -77 -37 -20 8 -14 14 55 52 52 29 82 40 82
30z m-1266 -26 c48 -18 23 -70 -26 -54 -12 3 -17 11 -14 21 3 8 6 21 6 29 0
17 1 17 34 4z m1260 -174 c55 2 78 -2 87 -12 6 -8 17 -14 24 -14 7 0 25 -6 40
-14 15 -8 33 -12 40 -10 13 5 65 -50 65 -68 0 -6 -8 -7 -17 -3 -161 65 -243
81 -293 55 -35 -17 -35 -17 -93 15 l-57 32 25 27 c14 15 25 31 25 36 0 23 37
13 57 -16 21 -31 23 -31 97 -28z m-256 -35 c9 -5 -2 -14 -35 -29 -26 -11 -60
-29 -75 -39 -30 -19 -42 -15 -32 11 3 9 16 16 28 16 12 0 37 11 56 25 38 28
39 28 58 16z m452 -182 c0 -5 6 -7 13 -3 10 6 10 4 0 -7 -23 -24 -14 -29 51
-29 67 0 88 -11 101 -49 3 -11 12 -22 20 -25 8 -3 15 -15 15 -26 0 -11 5 -20
10 -20 13 0 9 -102 -5 -112 -5 -4 -9 -34 -8 -68 1 -47 -2 -60 -14 -60 -10 0
-12 -6 -8 -19 5 -16 -2 -39 -23 -71 -2 -2 -7 2 -12 10 -7 11 -11 9 -19 -13 -6
-15 -17 -27 -25 -27 -7 0 -19 -7 -26 -15 -15 -18 -60 -20 -61 -2 0 6 -5 1 -10
-13 -10 -25 -11 -25 -25 -5 -14 19 -15 19 -20 -3 -4 -15 -14 -22 -30 -22 -13
0 -24 5 -24 11 0 5 -4 8 -9 5 -5 -4 -12 7 -16 24 -8 37 -25 49 -25 18 0 -21
-1 -21 -17 -6 -15 16 -17 16 -29 0 -17 -23 -22 -15 -28 45 -2 29 -7 57 -11 63
-8 13 31 50 52 50 16 0 17 12 1 29 -9 10 -9 12 -1 7 14 -8 83 50 83 70 0 8 7
17 15 20 10 4 12 11 5 23 -5 10 -6 27 -3 39 6 24 0 25 -192 22 -44 0 -102 4
-130 10 -103 22 -130 23 -144 6 -17 -21 -7 -33 14 -16 12 10 15 10 15 -3 0 -9
-14 -25 -30 -37 -17 -12 -28 -25 -25 -30 9 -14 -5 -38 -26 -43 -10 -3 -22 0
-26 5 -4 7 -1 8 7 3 8 -5 11 -4 6 3 -4 6 -13 9 -21 5 -17 -6 -20 -23 -5 -23 6
0 10 -5 10 -11 0 -5 -4 -7 -10 -4 -21 13 -9 -37 15 -60 23 -24 57 -31 125 -26
14 1 34 -5 44 -12 18 -13 18 -16 3 -43 -8 -16 -21 -43 -27 -61 -11 -29 -40
-54 -40 -34 0 5 -8 7 -19 4 -12 -3 -24 3 -33 16 -8 12 -18 18 -21 14 -4 -3 -7
-1 -7 6 0 9 -8 11 -24 7 -38 -9 -111 51 -111 91 0 17 -4 31 -10 30 -5 -1 -9 7
-7 17 4 19 -3 37 -35 100 -13 28 -12 33 13 83 16 29 32 53 37 53 4 0 23 11 41
25 l32 24 100 -28 c54 -16 102 -27 107 -24 4 2 -4 18 -18 35 -27 32 -29 37
-16 57 6 10 39 13 132 13 68 -1 144 3 169 7 68 13 190 13 190 0z m-258 -471
c-9 -9 -12 -7 -12 12 0 19 3 21 12 12 9 -9 9 -15 0 -24z m-458 -964 c3 -8 2
-12 -4 -9 -6 3 -10 10 -10 16 0 14 7 11 14 -7z"/>
<path d="M2090 3189 c0 -5 5 -7 10 -4 6 3 10 8 10 11 0 2 -4 4 -10 4 -5 0 -10
-5 -10 -11z"/>
<path d="M2104 3122 c3 -5 0 -12 -6 -15 -7 -2 -10 -7 -7 -11 3 -4 12 0 18 8 9
11 9 16 0 22 -7 4 -9 3 -5 -4z"/>
<path d="M1807 3059 c-4 -16 -3 -18 9 -8 16 13 19 29 5 29 -5 0 -11 -9 -14
-21z"/>
<path d="M1806 2861 c-3 -4 6 -8 20 -9 13 -1 24 0 24 2 0 7 -40 14 -44 7z"/>
<path d="M2868 2809 c-23 -19 -42 -28 -50 -23 -7 5 -28 9 -46 10 -31 1 -33 -1
-28 -22 5 -17 2 -24 -9 -24 -18 0 -29 -41 -21 -74 3 -14 18 -31 34 -38 20 -10
27 -21 28 -43 0 -17 4 -44 8 -62 8 -31 9 -31 31 -17 16 10 25 12 30 4 3 -6 10
-8 14 -5 5 2 6 -7 3 -20 -3 -20 0 -25 17 -25 13 0 19 -5 15 -14 -7 -18 47 -59
114 -85 31 -12 87 -23 130 -26 54 -4 69 -2 50 4 -16 5 -47 24 -70 43 -23 18
-39 28 -35 21 5 -8 0 -9 -22 0 -41 15 -30 26 20 21 31 -4 40 -2 37 8 -3 7 -13
15 -24 16 -31 6 -43 24 -14 22 77 -6 102 0 137 35 33 33 36 34 48 18 17 -22
13 -29 -33 -53 l-37 -19 36 -1 c21 0 44 -8 57 -21 22 -20 23 -20 47 -1 13 11
21 22 18 26 -3 3 13 6 36 6 54 0 82 15 74 38 -15 41 -135 126 -193 136 l-35 6
40 -15 c39 -15 99 -64 90 -73 -2 -3 -35 11 -73 31 -49 26 -87 38 -135 43 -69
7 -92 23 -34 25 l32 0 -42 17 c-24 9 -43 19 -43 23 0 7 152 46 199 51 37 4 35
23 -4 38 -19 7 -33 16 -30 18 2 3 21 -4 42 -14 21 -10 43 -19 48 -21 98 -25
117 -25 66 2 -18 9 -29 19 -27 24 3 4 -5 7 -17 7 -12 -1 -21 4 -20 9 1 10 -53
14 -297 20 l-125 4 -37 -30z m52 17 c0 -2 -8 -10 -17 -17 -16 -13 -17 -12 -4
4 13 16 21 21 21 13z m125 -310 c7 -16 5 -18 -26 -11 -48 10 -61 23 -48 47 6
10 20 23 32 27 19 7 23 4 28 -18 4 -14 10 -34 14 -45z m395 -17 c0 -4 -7 -6
-15 -3 -8 4 -15 10 -15 15 0 4 7 6 15 3 8 -4 15 -10 15 -15z m-395 -19 c3 -5
-1 -10 -9 -10 -8 0 -18 5 -21 10 -3 6 1 10 9 10 8 0 18 -4 21 -10z"/>
<path d="M2887 1809 c12 -12 25 -20 28 -17 3 3 -7 13 -22 23 l-28 17 22 -23z"/>
<path d="M2192 1135 c-9 -20 -9 -23 3 -18 8 3 15 14 15 24 0 25 -5 24 -18 -6z"/>
<path d="M5041 4136 c-9 -10 -8 -16 4 -26 13 -10 15 -9 15 10 0 19 2 20 15 10
13 -11 14 -10 9 4 -8 20 -28 21 -43 2z"/>
<path d="M4475 4060 c3 -5 8 -10 11 -10 2 0 4 5 4 10 0 6 -5 10 -11 10 -5 0
-7 -4 -4 -10z"/>
<path d="M4450 4039 c0 -5 5 -7 10 -4 6 3 10 8 10 11 0 2 -4 4 -10 4 -5 0 -10
-5 -10 -11z"/>
<path d="M3846 4014 c-9 -24 -7 -31 5 -11 6 9 14 15 20 12 5 -4 9 -1 9 4 0 17
-27 13 -34 -5z"/>
<path d="M4039 4001 c13 -23 19 -25 41 -11 10 7 11 10 3 11 -23 3 -28 4 -41
13 -11 7 -12 4 -3 -13z"/>
<path d="M4255 4010 c-3 -5 -1 -10 4 -10 6 0 11 5 11 10 0 6 -2 10 -4 10 -3 0
-8 -4 -11 -10z"/>
<path d="M410 4002 c0 -4 10 -9 22 -9 18 -2 20 0 8 7 -18 12 -30 13 -30 2z"/>
<path d="M1280 3996 c0 -8 -5 -16 -12 -18 -7 -3 -5 -7 6 -11 9 -4 15 -3 11 2
-3 5 1 11 9 13 12 3 12 5 0 16 -11 10 -14 10 -14 -2z"/>
<path d="M1371 3997 c-9 -12 -9 -17 0 -23 8 -4 9 -3 5 4 -4 7 -2 12 3 12 6 0
11 -5 11 -12 0 -6 3 -9 6 -5 3 3 2 13 -3 22 -8 14 -11 14 -22 2z"/>
<path d="M4130 4000 c0 -5 5 -10 11 -10 5 0 7 5 4 10 -3 6 -8 10 -11 10 -2 0
-4 -4 -4 -10z"/>
<path d="M4181 3994 c-10 -12 -10 -19 -2 -27 6 -6 11 -9 12 -6 0 2 2 14 5 27
5 26 3 26 -15 6z"/>
<path d="M3787 3983 c3 -7 6 -13 8 -13 2 0 5 6 8 13 3 8 -1 14 -8 14 -7 0 -11
-6 -8 -14z"/>
<path d="M1135 3980 c-3 -5 -1 -10 4 -10 6 0 11 5 11 10 0 6 -2 10 -4 10 -3 0
-8 -4 -11 -10z"/>
<path d="M1082 3955 c0 -16 2 -22 5 -12 2 9 2 23 0 30 -3 6 -5 -1 -5 -18z"/>
<path d="M3686 3968 c3 -5 10 -6 15 -3 13 9 11 12 -6 12 -8 0 -12 -4 -9 -9z"/>
<path d="M206 3948 c3 -5 10 -6 15 -3 13 9 11 12 -6 12 -8 0 -12 -4 -9 -9z"/>
<path d="M3930 3950 c0 -5 5 -10 11 -10 5 0 7 5 4 10 -3 6 -8 10 -11 10 -2 0
-4 -4 -4 -10z"/>
<path d="M3885 3940 c-19 -8 -19 -9 3 -9 12 -1 22 4 22 9 0 6 -1 10 -2 9 -2 0
-12 -4 -23 -9z"/>
<path d="M23 3924 c1 -21 19 -26 34 -9 4 4 3 5 -4 1 -6 -3 -16 2 -22 11 -9 16
-10 16 -8 -3z"/>
<path d="M1160 3929 c0 -5 5 -7 10 -4 6 3 10 8 10 11 0 2 -4 4 -10 4 -5 0 -10
-5 -10 -11z"/>
<path d="M3954 3928 c-4 -7 -4 -10 1 -6 4 4 14 3 21 -3 9 -7 14 -6 20 3 4 7 4
10 -1 6 -4 -4 -14 -3 -21 3 -9 7 -14 6 -20 -3z"/>
<path d="M4020 3920 c9 -16 40 -19 40 -3 0 3 -7 3 -15 -1 -9 -3 -15 0 -15 9 0
8 -5 15 -10 15 -7 0 -7 -6 0 -20z"/>
<path d="M3783 1867 c-18 -12 -32 -30 -33 -40 0 -27 20 -16 47 26 13 20 22 37
21 36 -2 0 -17 -11 -35 -22z"/>
</g>
</svg>
